<?xml version="1.0" encoding="UTF-8" standalone="no"?>
<!-- Created with Inkscape (http://www.inkscape.org/) -->

<svg
   xmlns:dc="http://purl.org/dc/elements/1.1/"
   xmlns:cc="http://creativecommons.org/ns#"
   xmlns:rdf="http://www.w3.org/1999/02/22-rdf-syntax-ns#"
   xmlns:svg="http://www.w3.org/2000/svg"
   xmlns="http://www.w3.org/2000/svg"
   version="1.2"
   width="230"
   height="230"
   id="svg2">
  <defs
     id="defs4">
    <filter
       color-interpolation-filters="sRGB"
       id="filter3110">
      <feGaussianBlur
         id="feGaussianBlur3112"
         stdDeviation="3" />
    </filter>
  </defs>
  <metadata
     id="metadata7">
    <rdf:RDF>
      <cc:Work
         rdf:about="">
        <dc:format>image/svg+xml</dc:format>
        <dc:type
           rdf:resource="http://purl.org/dc/dcmitype/StillImage" />
        <dc:title></dc:title>
      </cc:Work>
    </rdf:RDF>
  </metadata>
  <g
     transform="translate(0,-822.36123)"
     id="layer1">
    <flowRoot
       id="flowRoot2985"
       xml:space="preserve"
       style="font-size:40px;font-style:normal;font-weight:normal;line-height:125%;letter-spacing:0px;word-spacing:0px;fill:#000000;fill-opacity:1;stroke:none;font-family:Sans"><flowRegion
         id="flowRegion2987"><rect
           width="542.85712"
           height="520"
           x="125.71429"
           y="126.6479"
           id="rect2989" /></flowRegion><flowPara
         id="flowPara2991"></flowPara></flowRoot>    <g
       transform="translate(-228.11173,690.92404)"
       id="text2993"
       style="font-size:40px;font-style:normal;font-variant:normal;font-weight:normal;font-stretch:normal;text-align:start;line-height:125%;letter-spacing:0px;word-spacing:0px;writing-mode:lr-tb;text-anchor:start;fill:#ffffff;fill-opacity:1;stroke:none;filter:url(#filter3110);font-family:Consolas;-inkscape-font-specification:Consolas">
      <path
         d="m 274.55914,173.89398 c -2e-5,1.95314 -0.19533,3.73699 -0.58593,5.35156 -0.39065,1.60157 -0.9831,2.98178 -1.77735,4.14063 -0.79429,1.14583 -1.78387,2.03776 -2.96875,2.67578 -1.17189,0.625 -2.55209,0.9375 -4.14062,0.9375 -1.3672,0 -2.61069,-0.25391 -3.73047,-0.76172 -1.1198,-0.52083 -2.07683,-1.3151 -2.8711,-2.38281 -0.79427,-1.06771 -1.40625,-2.42838 -1.83593,-4.08203 -0.42969,-1.65364 -0.64454,-3.61327 -0.64453,-5.87891 -10e-6,-1.95311 0.19531,-3.73696 0.58593,-5.35156 0.40365,-1.61456 0.99609,-2.99477 1.77735,-4.14063 0.79426,-1.15883 1.78385,-2.05075 2.96875,-2.67578 1.18488,-0.63799 2.56509,-0.957 4.14062,-0.95703 1.36718,3e-5 2.61067,0.26044 3.73047,0.78125 1.11978,0.50784 2.07681,1.30211 2.87109,2.38281 0.79426,1.06773 1.40624,2.42841 1.83594,4.08204 0.42967,1.65366 0.64451,3.61329 0.64453,5.8789 m -3.4375,0.11719 c -1e-5,-0.4427 -0.0195,-0.87889 -0.0586,-1.30859 -0.0261,-0.4427 -0.0586,-0.87239 -0.0977,-1.28907 l -10.80078,8.02735 c 0.19531,0.67709 0.4427,1.30209 0.74219,1.875 0.29947,0.57292 0.65754,1.06771 1.07422,1.48437 0.42968,0.40365 0.91145,0.72266 1.44531,0.95703 0.54687,0.22136 1.16535,0.33204 1.85547,0.33203 0.8854,1e-5 1.68618,-0.21484 2.40234,-0.64453 0.72916,-0.42968 1.34764,-1.0677 1.85547,-1.91406 0.5078,-0.84635 0.89842,-1.89452 1.17188,-3.14453 0.27342,-1.26301 0.41014,-2.72134 0.41015,-4.375 m -11.67968,-0.23438 c -1e-5,0.40366 -1e-5,0.80731 0,1.21094 0.013,0.40366 0.0391,0.79428 0.0781,1.17188 l 10.80078,-7.98828 c -0.19533,-0.66405 -0.44272,-1.26952 -0.74219,-1.81641 -0.29949,-0.54685 -0.65756,-1.0156 -1.07421,-1.40625 -0.41668,-0.40362 -0.89194,-0.71612 -1.42579,-0.9375 -0.53386,-0.22133 -1.13282,-0.33201 -1.79687,-0.33203 -0.88543,2e-5 -1.69272,0.21486 -2.42188,0.64453 -0.71615,0.42971 -1.32813,1.07424 -1.83593,1.93359 -0.50782,0.84638 -0.89845,1.90106 -1.17188,3.16407 -0.27344,1.25001 -0.41016,2.70183 -0.41015,4.35546"
         id="path3004"
         style="fill:#ffffff" />
      <path
         d="m 295.78961,186.64789 -16.03515,0 0,-3.16406 6.5625,0 0,-18.63282 -6.11329,3.32032 -1.25,-2.89063 8.125,-4.27734 3.00782,0 0,22.48047 5.70312,0 0,3.16406"
         id="path3006"
         style="fill:#ffffff" />
      <path
         d="m 317.82086,186.64789 -16.03515,0 0,-3.16406 6.5625,0 0,-18.63282 -6.11329,3.32032 -1.25,-2.89063 8.125,-4.27734 3.00782,0 0,22.48047 5.70312,0 0,3.16406"
         id="path3008"
         style="fill:#ffffff" />
      <path
         d="m 340.65289,173.89398 c -2e-5,1.95314 -0.19533,3.73699 -0.58593,5.35156 -0.39065,1.60157 -0.9831,2.98178 -1.77735,4.14063 -0.79429,1.14583 -1.78387,2.03776 -2.96875,2.67578 -1.17189,0.625 -2.55209,0.9375 -4.14062,0.9375 -1.3672,0 -2.61069,-0.25391 -3.73047,-0.76172 -1.1198,-0.52083 -2.07683,-1.3151 -2.8711,-2.38281 -0.79427,-1.06771 -1.40625,-2.42838 -1.83593,-4.08203 -0.42969,-1.65364 -0.64454,-3.61327 -0.64453,-5.87891 -10e-6,-1.95311 0.19531,-3.73696 0.58593,-5.35156 0.40365,-1.61456 0.99609,-2.99477 1.77735,-4.14063 0.79426,-1.15883 1.78385,-2.05075 2.96875,-2.67578 1.18488,-0.63799 2.56509,-0.957 4.14062,-0.95703 1.36718,3e-5 2.61067,0.26044 3.73047,0.78125 1.11978,0.50784 2.07681,1.30211 2.87109,2.38281 0.79426,1.06773 1.40624,2.42841 1.83594,4.08204 0.42967,1.65366 0.64451,3.61329 0.64453,5.8789 m -3.4375,0.11719 c -1e-5,-0.4427 -0.0195,-0.87889 -0.0586,-1.30859 -0.0261,-0.4427 -0.0586,-0.87239 -0.0977,-1.28907 l -10.80078,8.02735 c 0.19531,0.67709 0.4427,1.30209 0.74219,1.875 0.29947,0.57292 0.65754,1.06771 1.07422,1.48437 0.42968,0.40365 0.91145,0.72266 1.44531,0.95703 0.54687,0.22136 1.16535,0.33204 1.85547,0.33203 0.8854,1e-5 1.68618,-0.21484 2.40234,-0.64453 0.72916,-0.42968 1.34764,-1.0677 1.85547,-1.91406 0.5078,-0.84635 0.89842,-1.89452 1.17188,-3.14453 0.27342,-1.26301 0.41014,-2.72134 0.41015,-4.375 m -11.67968,-0.23438 c -1e-5,0.40366 -1e-5,0.80731 0,1.21094 0.013,0.40366 0.0391,0.79428 0.0781,1.17188 l 10.80078,-7.98828 c -0.19533,-0.66405 -0.44272,-1.26952 -0.74219,-1.81641 -0.29949,-0.54685 -0.65756,-1.0156 -1.07421,-1.40625 -0.41668,-0.40362 -0.89194,-0.71612 -1.42579,-0.9375 -0.53386,-0.22133 -1.13282,-0.33201 -1.79687,-0.33203 -0.88543,2e-5 -1.69272,0.21486 -2.42188,0.64453 -0.71615,0.42971 -1.32813,1.07424 -1.83593,1.93359 -0.50782,0.84638 -0.89845,1.90106 -1.17188,3.16407 -0.27344,1.25001 -0.41016,2.70183 -0.41015,4.35546"
         id="path3010"
         style="fill:#ffffff" />
      <path
         d="m 362.68414,173.89398 c -2e-5,1.95314 -0.19533,3.73699 -0.58593,5.35156 -0.39065,1.60157 -0.9831,2.98178 -1.77735,4.14063 -0.79429,1.14583 -1.78387,2.03776 -2.96875,2.67578 -1.17189,0.625 -2.55209,0.9375 -4.14062,0.9375 -1.3672,0 -2.61069,-0.25391 -3.73047,-0.76172 -1.1198,-0.52083 -2.07683,-1.3151 -2.8711,-2.38281 -0.79427,-1.06771 -1.40625,-2.42838 -1.83593,-4.08203 -0.42969,-1.65364 -0.64454,-3.61327 -0.64453,-5.87891 -10e-6,-1.95311 0.19531,-3.73696 0.58593,-5.35156 0.40365,-1.61456 0.99609,-2.99477 1.77735,-4.14063 0.79426,-1.15883 1.78385,-2.05075 2.96875,-2.67578 1.18488,-0.63799 2.56509,-0.957 4.14062,-0.95703 1.36718,3e-5 2.61067,0.26044 3.73047,0.78125 1.11978,0.50784 2.07681,1.30211 2.87109,2.38281 0.79426,1.06773 1.40624,2.42841 1.83594,4.08204 0.42967,1.65366 0.64451,3.61329 0.64453,5.8789 m -3.4375,0.11719 c -1e-5,-0.4427 -0.0195,-0.87889 -0.0586,-1.30859 -0.0261,-0.4427 -0.0586,-0.87239 -0.0977,-1.28907 l -10.80078,8.02735 c 0.19531,0.67709 0.4427,1.30209 0.74219,1.875 0.29947,0.57292 0.65754,1.06771 1.07422,1.48437 0.42968,0.40365 0.91145,0.72266 1.44531,0.95703 0.54687,0.22136 1.16535,0.33204 1.85547,0.33203 0.8854,1e-5 1.68618,-0.21484 2.40234,-0.64453 0.72916,-0.42968 1.34764,-1.0677 1.85547,-1.91406 0.5078,-0.84635 0.89842,-1.89452 1.17188,-3.14453 0.27342,-1.26301 0.41014,-2.72134 0.41015,-4.375 m -11.67968,-0.23438 c -1e-5,0.40366 -1e-5,0.80731 0,1.21094 0.013,0.40366 0.0391,0.79428 0.0781,1.17188 l 10.80078,-7.98828 c -0.19533,-0.66405 -0.44272,-1.26952 -0.74219,-1.81641 -0.29949,-0.54685 -0.65756,-1.0156 -1.07421,-1.40625 -0.41668,-0.40362 -0.89194,-0.71612 -1.42579,-0.9375 -0.53386,-0.22133 -1.13282,-0.33201 -1.79687,-0.33203 -0.88543,2e-5 -1.69272,0.21486 -2.42188,0.64453 -0.71615,0.42971 -1.32813,1.07424 -1.83593,1.93359 -0.50782,0.84638 -0.89845,1.90106 -1.17188,3.16407 -0.27344,1.25001 -0.41016,2.70183 -0.41015,4.35546"
         id="path3012"
         style="fill:#ffffff" />
      <path
         d="m 383.91461,186.64789 -16.03515,0 0,-3.16406 6.5625,0 0,-18.63282 -6.11329,3.32032 -1.25,-2.89063 8.125,-4.27734 3.00782,0 0,22.48047 5.70312,0 0,3.16406"
         id="path3014"
         style="fill:#ffffff" />
      <path
         d="m 406.74664,173.89398 c -2e-5,1.95314 -0.19533,3.73699 -0.58593,5.35156 -0.39065,1.60157 -0.9831,2.98178 -1.77735,4.14063 -0.79429,1.14583 -1.78387,2.03776 -2.96875,2.67578 -1.17189,0.625 -2.55209,0.9375 -4.14062,0.9375 -1.3672,0 -2.61069,-0.25391 -3.73047,-0.76172 -1.1198,-0.52083 -2.07683,-1.3151 -2.8711,-2.38281 -0.79427,-1.06771 -1.40625,-2.42838 -1.83593,-4.08203 -0.42969,-1.65364 -0.64454,-3.61327 -0.64453,-5.87891 -10e-6,-1.95311 0.19531,-3.73696 0.58593,-5.35156 0.40365,-1.61456 0.99609,-2.99477 1.77735,-4.14063 0.79426,-1.15883 1.78385,-2.05075 2.96875,-2.67578 1.18488,-0.63799 2.56509,-0.957 4.14062,-0.95703 1.36718,3e-5 2.61067,0.26044 3.73047,0.78125 1.11978,0.50784 2.07681,1.30211 2.87109,2.38281 0.79426,1.06773 1.40624,2.42841 1.83594,4.08204 0.42967,1.65366 0.64451,3.61329 0.64453,5.8789 m -3.4375,0.11719 c -1e-5,-0.4427 -0.0195,-0.87889 -0.0586,-1.30859 -0.0261,-0.4427 -0.0586,-0.87239 -0.0977,-1.28907 l -10.80078,8.02735 c 0.19531,0.67709 0.4427,1.30209 0.74219,1.875 0.29947,0.57292 0.65754,1.06771 1.07422,1.48437 0.42968,0.40365 0.91145,0.72266 1.44531,0.95703 0.54687,0.22136 1.16535,0.33204 1.85547,0.33203 0.8854,1e-5 1.68618,-0.21484 2.40234,-0.64453 0.72916,-0.42968 1.34764,-1.0677 1.85547,-1.91406 0.5078,-0.84635 0.89842,-1.89452 1.17188,-3.14453 0.27342,-1.26301 0.41014,-2.72134 0.41015,-4.375 m -11.67968,-0.23438 c -1e-5,0.40366 -1e-5,0.80731 0,1.21094 0.013,0.40366 0.0391,0.79428 0.0781,1.17188 l 10.80078,-7.98828 c -0.19533,-0.66405 -0.44272,-1.26952 -0.74219,-1.81641 -0.29949,-0.54685 -0.65756,-1.0156 -1.07421,-1.40625 -0.41668,-0.40362 -0.89194,-0.71612 -1.42579,-0.9375 -0.53386,-0.22133 -1.13282,-0.33201 -1.79687,-0.33203 -0.88543,2e-5 -1.69272,0.21486 -2.42188,0.64453 -0.71615,0.42971 -1.32813,1.07424 -1.83593,1.93359 -0.50782,0.84638 -0.89845,1.90106 -1.17188,3.16407 -0.27344,1.25001 -0.41016,2.70183 -0.41015,4.35546"
         id="path3016"
         style="fill:#ffffff" />
      <path
         d="m 428.77789,173.89398 c -2e-5,1.95314 -0.19533,3.73699 -0.58593,5.35156 -0.39065,1.60157 -0.9831,2.98178 -1.77735,4.14063 -0.79429,1.14583 -1.78387,2.03776 -2.96875,2.67578 -1.17189,0.625 -2.55209,0.9375 -4.14062,0.9375 -1.3672,0 -2.61069,-0.25391 -3.73047,-0.76172 -1.1198,-0.52083 -2.07683,-1.3151 -2.8711,-2.38281 -0.79427,-1.06771 -1.40625,-2.42838 -1.83593,-4.08203 -0.42969,-1.65364 -0.64454,-3.61327 -0.64453,-5.87891 -10e-6,-1.95311 0.19531,-3.73696 0.58593,-5.35156 0.40365,-1.61456 0.99609,-2.99477 1.77735,-4.14063 0.79426,-1.15883 1.78385,-2.05075 2.96875,-2.67578 1.18488,-0.63799 2.56509,-0.957 4.14062,-0.95703 1.36718,3e-5 2.61067,0.26044 3.73047,0.78125 1.11978,0.50784 2.07681,1.30211 2.87109,2.38281 0.79426,1.06773 1.40624,2.42841 1.83594,4.08204 0.42967,1.65366 0.64451,3.61329 0.64453,5.8789 m -3.4375,0.11719 c -1e-5,-0.4427 -0.0195,-0.87889 -0.0586,-1.30859 -0.0261,-0.4427 -0.0586,-0.87239 -0.0977,-1.28907 l -10.80078,8.02735 c 0.19531,0.67709 0.4427,1.30209 0.74219,1.875 0.29947,0.57292 0.65754,1.06771 1.07422,1.48437 0.42968,0.40365 0.91145,0.72266 1.44531,0.95703 0.54687,0.22136 1.16535,0.33204 1.85547,0.33203 0.8854,1e-5 1.68618,-0.21484 2.40234,-0.64453 0.72916,-0.42968 1.34764,-1.0677 1.85547,-1.91406 0.5078,-0.84635 0.89842,-1.89452 1.17188,-3.14453 0.27342,-1.26301 0.41014,-2.72134 0.41015,-4.375 m -11.67968,-0.23438 c -1e-5,0.40366 -1e-5,0.80731 0,1.21094 0.013,0.40366 0.0391,0.79428 0.0781,1.17188 l 10.80078,-7.98828 c -0.19533,-0.66405 -0.44272,-1.26952 -0.74219,-1.81641 -0.29949,-0.54685 -0.65756,-1.0156 -1.07421,-1.40625 -0.41668,-0.40362 -0.89194,-0.71612 -1.42579,-0.9375 -0.53386,-0.22133 -1.13282,-0.33201 -1.79687,-0.33203 -0.88543,2e-5 -1.69272,0.21486 -2.42188,0.64453 -0.71615,0.42971 -1.32813,1.07424 -1.83593,1.93359 -0.50782,0.84638 -0.89845,1.90106 -1.17188,3.16407 -0.27344,1.25001 -0.41016,2.70183 -0.41015,4.35546"
         id="path3018"
         style="fill:#ffffff" />
      <path
         d="m 274.55914,223.89398 c -2e-5,1.95314 -0.19533,3.73699 -0.58593,5.35156 -0.39065,1.60157 -0.9831,2.98178 -1.77735,4.14063 -0.79429,1.14583 -1.78387,2.03776 -2.96875,2.67578 -1.17189,0.625 -2.55209,0.9375 -4.14062,0.9375 -1.3672,0 -2.61069,-0.25391 -3.73047,-0.76172 -1.1198,-0.52083 -2.07683,-1.3151 -2.8711,-2.38281 -0.79427,-1.06771 -1.40625,-2.42838 -1.83593,-4.08203 -0.42969,-1.65364 -0.64454,-3.61327 -0.64453,-5.87891 -10e-6,-1.95311 0.19531,-3.73696 0.58593,-5.35156 0.40365,-1.61456 0.99609,-2.99477 1.77735,-4.14063 0.79426,-1.15883 1.78385,-2.05075 2.96875,-2.67578 1.18488,-0.63799 2.56509,-0.957 4.14062,-0.95703 1.36718,3e-5 2.61067,0.26044 3.73047,0.78125 1.11978,0.50784 2.07681,1.30211 2.87109,2.38281 0.79426,1.06773 1.40624,2.42841 1.83594,4.08204 0.42967,1.65366 0.64451,3.61329 0.64453,5.8789 m -3.4375,0.11719 c -1e-5,-0.4427 -0.0195,-0.87889 -0.0586,-1.30859 -0.0261,-0.4427 -0.0586,-0.87239 -0.0977,-1.28907 l -10.80078,8.02735 c 0.19531,0.67709 0.4427,1.30209 0.74219,1.875 0.29947,0.57292 0.65754,1.06771 1.07422,1.48437 0.42968,0.40365 0.91145,0.72266 1.44531,0.95703 0.54687,0.22136 1.16535,0.33204 1.85547,0.33203 0.8854,1e-5 1.68618,-0.21484 2.40234,-0.64453 0.72916,-0.42968 1.34764,-1.0677 1.85547,-1.91406 0.5078,-0.84635 0.89842,-1.89452 1.17188,-3.14453 0.27342,-1.26301 0.41014,-2.72134 0.41015,-4.375 m -11.67968,-0.23438 c -1e-5,0.40366 -1e-5,0.80731 0,1.21094 0.013,0.40366 0.0391,0.79428 0.0781,1.17188 l 10.80078,-7.98828 c -0.19533,-0.66405 -0.44272,-1.26952 -0.74219,-1.81641 -0.29949,-0.54685 -0.65756,-1.0156 -1.07421,-1.40625 -0.41668,-0.40362 -0.89194,-0.71612 -1.42579,-0.9375 -0.53386,-0.22133 -1.13282,-0.33201 -1.79687,-0.33203 -0.88543,2e-5 -1.69272,0.21486 -2.42188,0.64453 -0.71615,0.42971 -1.32813,1.07424 -1.83593,1.93359 -0.50782,0.84638 -0.89845,1.90106 -1.17188,3.16407 -0.27344,1.25001 -0.41016,2.70183 -0.41015,4.35546"
         id="path3020"
         style="fill:#ffffff" />
      <path
         d="m 295.78961,236.64789 -16.03515,0 0,-3.16406 6.5625,0 0,-18.63282 -6.11329,3.32032 -1.25,-2.89063 8.125,-4.27734 3.00782,0 0,22.48047 5.70312,0 0,3.16406"
         id="path3022"
         style="fill:#ffffff" />
      <path
         d="m 317.82086,236.64789 -16.03515,0 0,-3.16406 6.5625,0 0,-18.63282 -6.11329,3.32032 -1.25,-2.89063 8.125,-4.27734 3.00782,0 0,22.48047 5.70312,0 0,3.16406"
         id="path3024"
         style="fill:#ffffff" />
      <path
         d="m 340.65289,223.89398 c -2e-5,1.95314 -0.19533,3.73699 -0.58593,5.35156 -0.39065,1.60157 -0.9831,2.98178 -1.77735,4.14063 -0.79429,1.14583 -1.78387,2.03776 -2.96875,2.67578 -1.17189,0.625 -2.55209,0.9375 -4.14062,0.9375 -1.3672,0 -2.61069,-0.25391 -3.73047,-0.76172 -1.1198,-0.52083 -2.07683,-1.3151 -2.8711,-2.38281 -0.79427,-1.06771 -1.40625,-2.42838 -1.83593,-4.08203 -0.42969,-1.65364 -0.64454,-3.61327 -0.64453,-5.87891 -10e-6,-1.95311 0.19531,-3.73696 0.58593,-5.35156 0.40365,-1.61456 0.99609,-2.99477 1.77735,-4.14063 0.79426,-1.15883 1.78385,-2.05075 2.96875,-2.67578 1.18488,-0.63799 2.56509,-0.957 4.14062,-0.95703 1.36718,3e-5 2.61067,0.26044 3.73047,0.78125 1.11978,0.50784 2.07681,1.30211 2.87109,2.38281 0.79426,1.06773 1.40624,2.42841 1.83594,4.08204 0.42967,1.65366 0.64451,3.61329 0.64453,5.8789 m -3.4375,0.11719 c -1e-5,-0.4427 -0.0195,-0.87889 -0.0586,-1.30859 -0.0261,-0.4427 -0.0586,-0.87239 -0.0977,-1.28907 l -10.80078,8.02735 c 0.19531,0.67709 0.4427,1.30209 0.74219,1.875 0.29947,0.57292 0.65754,1.06771 1.07422,1.48437 0.42968,0.40365 0.91145,0.72266 1.44531,0.95703 0.54687,0.22136 1.16535,0.33204 1.85547,0.33203 0.8854,1e-5 1.68618,-0.21484 2.40234,-0.64453 0.72916,-0.42968 1.34764,-1.0677 1.85547,-1.91406 0.5078,-0.84635 0.89842,-1.89452 1.17188,-3.14453 0.27342,-1.26301 0.41014,-2.72134 0.41015,-4.375 m -11.67968,-0.23438 c -1e-5,0.40366 -1e-5,0.80731 0,1.21094 0.013,0.40366 0.0391,0.79428 0.0781,1.17188 l 10.80078,-7.98828 c -0.19533,-0.66405 -0.44272,-1.26952 -0.74219,-1.81641 -0.29949,-0.54685 -0.65756,-1.0156 -1.07421,-1.40625 -0.41668,-0.40362 -0.89194,-0.71612 -1.42579,-0.9375 -0.53386,-0.22133 -1.13282,-0.33201 -1.79687,-0.33203 -0.88543,2e-5 -1.69272,0.21486 -2.42188,0.64453 -0.71615,0.42971 -1.32813,1.07424 -1.83593,1.93359 -0.50782,0.84638 -0.89845,1.90106 -1.17188,3.16407 -0.27344,1.25001 -0.41016,2.70183 -0.41015,4.35546"
         id="path3026"
         style="fill:#ffffff" />
      <path
         d="m 362.68414,223.89398 c -2e-5,1.95314 -0.19533,3.73699 -0.58593,5.35156 -0.39065,1.60157 -0.9831,2.98178 -1.77735,4.14063 -0.79429,1.14583 -1.78387,2.03776 -2.96875,2.67578 -1.17189,0.625 -2.55209,0.9375 -4.14062,0.9375 -1.3672,0 -2.61069,-0.25391 -3.73047,-0.76172 -1.1198,-0.52083 -2.07683,-1.3151 -2.8711,-2.38281 -0.79427,-1.06771 -1.40625,-2.42838 -1.83593,-4.08203 -0.42969,-1.65364 -0.64454,-3.61327 -0.64453,-5.87891 -10e-6,-1.95311 0.19531,-3.73696 0.58593,-5.35156 0.40365,-1.61456 0.99609,-2.99477 1.77735,-4.14063 0.79426,-1.15883 1.78385,-2.05075 2.96875,-2.67578 1.18488,-0.63799 2.56509,-0.957 4.14062,-0.95703 1.36718,3e-5 2.61067,0.26044 3.73047,0.78125 1.11978,0.50784 2.07681,1.30211 2.87109,2.38281 0.79426,1.06773 1.40624,2.42841 1.83594,4.08204 0.42967,1.65366 0.64451,3.61329 0.64453,5.8789 m -3.4375,0.11719 c -1e-5,-0.4427 -0.0195,-0.87889 -0.0586,-1.30859 -0.0261,-0.4427 -0.0586,-0.87239 -0.0977,-1.28907 l -10.80078,8.02735 c 0.19531,0.67709 0.4427,1.30209 0.74219,1.875 0.29947,0.57292 0.65754,1.06771 1.07422,1.48437 0.42968,0.40365 0.91145,0.72266 1.44531,0.95703 0.54687,0.22136 1.16535,0.33204 1.85547,0.33203 0.8854,1e-5 1.68618,-0.21484 2.40234,-0.64453 0.72916,-0.42968 1.34764,-1.0677 1.85547,-1.91406 0.5078,-0.84635 0.89842,-1.89452 1.17188,-3.14453 0.27342,-1.26301 0.41014,-2.72134 0.41015,-4.375 m -11.67968,-0.23438 c -1e-5,0.40366 -1e-5,0.80731 0,1.21094 0.013,0.40366 0.0391,0.79428 0.0781,1.17188 l 10.80078,-7.98828 c -0.19533,-0.66405 -0.44272,-1.26952 -0.74219,-1.81641 -0.29949,-0.54685 -0.65756,-1.0156 -1.07421,-1.40625 -0.41668,-0.40362 -0.89194,-0.71612 -1.42579,-0.9375 -0.53386,-0.22133 -1.13282,-0.33201 -1.79687,-0.33203 -0.88543,2e-5 -1.69272,0.21486 -2.42188,0.64453 -0.71615,0.42971 -1.32813,1.07424 -1.83593,1.93359 -0.50782,0.84638 -0.89845,1.90106 -1.17188,3.16407 -0.27344,1.25001 -0.41016,2.70183 -0.41015,4.35546"
         id="path3028"
         style="fill:#ffffff" />
      <path
         d="m 384.71539,223.89398 c -2e-5,1.95314 -0.19533,3.73699 -0.58593,5.35156 -0.39065,1.60157 -0.9831,2.98178 -1.77735,4.14063 -0.79429,1.14583 -1.78387,2.03776 -2.96875,2.67578 -1.17189,0.625 -2.55209,0.9375 -4.14062,0.9375 -1.3672,0 -2.61069,-0.25391 -3.73047,-0.76172 -1.1198,-0.52083 -2.07683,-1.3151 -2.8711,-2.38281 -0.79427,-1.06771 -1.40625,-2.42838 -1.83593,-4.08203 -0.42969,-1.65364 -0.64454,-3.61327 -0.64453,-5.87891 -10e-6,-1.95311 0.19531,-3.73696 0.58593,-5.35156 0.40365,-1.61456 0.99609,-2.99477 1.77735,-4.14063 0.79426,-1.15883 1.78385,-2.05075 2.96875,-2.67578 1.18488,-0.63799 2.56509,-0.957 4.14062,-0.95703 1.36718,3e-5 2.61067,0.26044 3.73047,0.78125 1.11978,0.50784 2.07681,1.30211 2.87109,2.38281 0.79426,1.06773 1.40624,2.42841 1.83594,4.08204 0.42967,1.65366 0.64451,3.61329 0.64453,5.8789 m -3.4375,0.11719 c -1e-5,-0.4427 -0.0195,-0.87889 -0.0586,-1.30859 -0.0261,-0.4427 -0.0586,-0.87239 -0.0977,-1.28907 l -10.80078,8.02735 c 0.19531,0.67709 0.4427,1.30209 0.74219,1.875 0.29947,0.57292 0.65754,1.06771 1.07422,1.48437 0.42968,0.40365 0.91145,0.72266 1.44531,0.95703 0.54687,0.22136 1.16535,0.33204 1.85547,0.33203 0.8854,1e-5 1.68618,-0.21484 2.40234,-0.64453 0.72916,-0.42968 1.34764,-1.0677 1.85547,-1.91406 0.5078,-0.84635 0.89842,-1.89452 1.17188,-3.14453 0.27342,-1.26301 0.41014,-2.72134 0.41015,-4.375 m -11.67968,-0.23438 c -1e-5,0.40366 -1e-5,0.80731 0,1.21094 0.013,0.40366 0.0391,0.79428 0.0781,1.17188 l 10.80078,-7.98828 c -0.19533,-0.66405 -0.44272,-1.26952 -0.74219,-1.81641 -0.29949,-0.54685 -0.65756,-1.0156 -1.07421,-1.40625 -0.41668,-0.40362 -0.89194,-0.71612 -1.42579,-0.9375 -0.53386,-0.22133 -1.13282,-0.33201 -1.79687,-0.33203 -0.88543,2e-5 -1.69272,0.21486 -2.42188,0.64453 -0.71615,0.42971 -1.32813,1.07424 -1.83593,1.93359 -0.50782,0.84638 -0.89845,1.90106 -1.17188,3.16407 -0.27344,1.25001 -0.41016,2.70183 -0.41015,4.35546"
         id="path3030"
         style="fill:#ffffff" />
      <path
         d="m 406.74664,223.89398 c -2e-5,1.95314 -0.19533,3.73699 -0.58593,5.35156 -0.39065,1.60157 -0.9831,2.98178 -1.77735,4.14063 -0.79429,1.14583 -1.78387,2.03776 -2.96875,2.67578 -1.17189,0.625 -2.55209,0.9375 -4.14062,0.9375 -1.3672,0 -2.61069,-0.25391 -3.73047,-0.76172 -1.1198,-0.52083 -2.07683,-1.3151 -2.8711,-2.38281 -0.79427,-1.06771 -1.40625,-2.42838 -1.83593,-4.08203 -0.42969,-1.65364 -0.64454,-3.61327 -0.64453,-5.87891 -10e-6,-1.95311 0.19531,-3.73696 0.58593,-5.35156 0.40365,-1.61456 0.99609,-2.99477 1.77735,-4.14063 0.79426,-1.15883 1.78385,-2.05075 2.96875,-2.67578 1.18488,-0.63799 2.56509,-0.957 4.14062,-0.95703 1.36718,3e-5 2.61067,0.26044 3.73047,0.78125 1.11978,0.50784 2.07681,1.30211 2.87109,2.38281 0.79426,1.06773 1.40624,2.42841 1.83594,4.08204 0.42967,1.65366 0.64451,3.61329 0.64453,5.8789 m -3.4375,0.11719 c -1e-5,-0.4427 -0.0195,-0.87889 -0.0586,-1.30859 -0.0261,-0.4427 -0.0586,-0.87239 -0.0977,-1.28907 l -10.80078,8.02735 c 0.19531,0.67709 0.4427,1.30209 0.74219,1.875 0.29947,0.57292 0.65754,1.06771 1.07422,1.48437 0.42968,0.40365 0.91145,0.72266 1.44531,0.95703 0.54687,0.22136 1.16535,0.33204 1.85547,0.33203 0.8854,1e-5 1.68618,-0.21484 2.40234,-0.64453 0.72916,-0.42968 1.34764,-1.0677 1.85547,-1.91406 0.5078,-0.84635 0.89842,-1.89452 1.17188,-3.14453 0.27342,-1.26301 0.41014,-2.72134 0.41015,-4.375 m -11.67968,-0.23438 c -1e-5,0.40366 -1e-5,0.80731 0,1.21094 0.013,0.40366 0.0391,0.79428 0.0781,1.17188 l 10.80078,-7.98828 c -0.19533,-0.66405 -0.44272,-1.26952 -0.74219,-1.81641 -0.29949,-0.54685 -0.65756,-1.0156 -1.07421,-1.40625 -0.41668,-0.40362 -0.89194,-0.71612 -1.42579,-0.9375 -0.53386,-0.22133 -1.13282,-0.33201 -1.79687,-0.33203 -0.88543,2e-5 -1.69272,0.21486 -2.42188,0.64453 -0.71615,0.42971 -1.32813,1.07424 -1.83593,1.93359 -0.50782,0.84638 -0.89845,1.90106 -1.17188,3.16407 -0.27344,1.25001 -0.41016,2.70183 -0.41015,4.35546"
         id="path3032"
         style="fill:#ffffff" />
      <path
         d="m 427.97711,236.64789 -16.03515,0 0,-3.16406 6.5625,0 0,-18.63282 -6.11329,3.32032 -1.25,-2.89063 8.125,-4.27734 3.00782,0 0,22.48047 5.70312,0 0,3.16406"
         id="path3034"
         style="fill:#ffffff" />
      <path
         d="m 274.55914,273.89398 c -2e-5,1.95314 -0.19533,3.73699 -0.58593,5.35156 -0.39065,1.60157 -0.9831,2.98178 -1.77735,4.14063 -0.79429,1.14583 -1.78387,2.03776 -2.96875,2.67578 -1.17189,0.625 -2.55209,0.9375 -4.14062,0.9375 -1.3672,0 -2.61069,-0.25391 -3.73047,-0.76172 -1.1198,-0.52083 -2.07683,-1.3151 -2.8711,-2.38281 -0.79427,-1.06771 -1.40625,-2.42838 -1.83593,-4.08203 -0.42969,-1.65364 -0.64454,-3.61327 -0.64453,-5.87891 -10e-6,-1.95311 0.19531,-3.73696 0.58593,-5.35156 0.40365,-1.61456 0.99609,-2.99477 1.77735,-4.14063 0.79426,-1.15883 1.78385,-2.05075 2.96875,-2.67578 1.18488,-0.63799 2.56509,-0.957 4.14062,-0.95703 1.36718,3e-5 2.61067,0.26044 3.73047,0.78125 1.11978,0.50784 2.07681,1.30211 2.87109,2.38281 0.79426,1.06773 1.40624,2.42841 1.83594,4.08204 0.42967,1.65366 0.64451,3.61329 0.64453,5.8789 m -3.4375,0.11719 c -1e-5,-0.4427 -0.0195,-0.87889 -0.0586,-1.30859 -0.0261,-0.4427 -0.0586,-0.87239 -0.0977,-1.28907 l -10.80078,8.02735 c 0.19531,0.67709 0.4427,1.30209 0.74219,1.875 0.29947,0.57292 0.65754,1.06771 1.07422,1.48437 0.42968,0.40365 0.91145,0.72266 1.44531,0.95703 0.54687,0.22136 1.16535,0.33204 1.85547,0.33203 0.8854,10e-6 1.68618,-0.21484 2.40234,-0.64453 0.72916,-0.42968 1.34764,-1.0677 1.85547,-1.91406 0.5078,-0.84635 0.89842,-1.89452 1.17188,-3.14453 0.27342,-1.26301 0.41014,-2.72134 0.41015,-4.375 m -11.67968,-0.23438 c -1e-5,0.40366 -1e-5,0.80731 0,1.21094 0.013,0.40366 0.0391,0.79428 0.0781,1.17188 l 10.80078,-7.98828 c -0.19533,-0.66405 -0.44272,-1.26952 -0.74219,-1.81641 -0.29949,-0.54685 -0.65756,-1.0156 -1.07421,-1.40625 -0.41668,-0.40362 -0.89194,-0.71612 -1.42579,-0.9375 -0.53386,-0.22133 -1.13282,-0.33201 -1.79687,-0.33203 -0.88543,2e-5 -1.69272,0.21486 -2.42188,0.64453 -0.71615,0.42971 -1.32813,1.07424 -1.83593,1.93359 -0.50782,0.84638 -0.89845,1.90106 -1.17188,3.16407 -0.27344,1.25001 -0.41016,2.70183 -0.41015,4.35546"
         id="path3036"
         style="fill:#ffffff" />
      <path
         d="m 295.78961,286.64789 -16.03515,0 0,-3.16406 6.5625,0 0,-18.63282 -6.11329,3.32032 -1.25,-2.89063 8.125,-4.27734 3.00782,0 0,22.48047 5.70312,0 0,3.16406"
         id="path3038"
         style="fill:#ffffff" />
      <path
         d="m 317.82086,286.64789 -16.03515,0 0,-3.16406 6.5625,0 0,-18.63282 -6.11329,3.32032 -1.25,-2.89063 8.125,-4.27734 3.00782,0 0,22.48047 5.70312,0 0,3.16406"
         id="path3040"
         style="fill:#ffffff" />
      <path
         d="m 339.85211,286.64789 -16.03515,0 0,-3.16406 6.5625,0 0,-18.63282 -6.11329,3.32032 -1.25,-2.89063 8.125,-4.27734 3.00782,0 0,22.48047 5.70312,0 0,3.16406"
         id="path3042"
         style="fill:#ffffff" />
      <path
         d="m 362.68414,273.89398 c -2e-5,1.95314 -0.19533,3.73699 -0.58593,5.35156 -0.39065,1.60157 -0.9831,2.98178 -1.77735,4.14063 -0.79429,1.14583 -1.78387,2.03776 -2.96875,2.67578 -1.17189,0.625 -2.55209,0.9375 -4.14062,0.9375 -1.3672,0 -2.61069,-0.25391 -3.73047,-0.76172 -1.1198,-0.52083 -2.07683,-1.3151 -2.8711,-2.38281 -0.79427,-1.06771 -1.40625,-2.42838 -1.83593,-4.08203 -0.42969,-1.65364 -0.64454,-3.61327 -0.64453,-5.87891 -10e-6,-1.95311 0.19531,-3.73696 0.58593,-5.35156 0.40365,-1.61456 0.99609,-2.99477 1.77735,-4.14063 0.79426,-1.15883 1.78385,-2.05075 2.96875,-2.67578 1.18488,-0.63799 2.56509,-0.957 4.14062,-0.95703 1.36718,3e-5 2.61067,0.26044 3.73047,0.78125 1.11978,0.50784 2.07681,1.30211 2.87109,2.38281 0.79426,1.06773 1.40624,2.42841 1.83594,4.08204 0.42967,1.65366 0.64451,3.61329 0.64453,5.8789 m -3.4375,0.11719 c -1e-5,-0.4427 -0.0195,-0.87889 -0.0586,-1.30859 -0.0261,-0.4427 -0.0586,-0.87239 -0.0977,-1.28907 l -10.80078,8.02735 c 0.19531,0.67709 0.4427,1.30209 0.74219,1.875 0.29947,0.57292 0.65754,1.06771 1.07422,1.48437 0.42968,0.40365 0.91145,0.72266 1.44531,0.95703 0.54687,0.22136 1.16535,0.33204 1.85547,0.33203 0.8854,10e-6 1.68618,-0.21484 2.40234,-0.64453 0.72916,-0.42968 1.34764,-1.0677 1.85547,-1.91406 0.5078,-0.84635 0.89842,-1.89452 1.17188,-3.14453 0.27342,-1.26301 0.41014,-2.72134 0.41015,-4.375 m -11.67968,-0.23438 c -1e-5,0.40366 -1e-5,0.80731 0,1.21094 0.013,0.40366 0.0391,0.79428 0.0781,1.17188 l 10.80078,-7.98828 c -0.19533,-0.66405 -0.44272,-1.26952 -0.74219,-1.81641 -0.29949,-0.54685 -0.65756,-1.0156 -1.07421,-1.40625 -0.41668,-0.40362 -0.89194,-0.71612 -1.42579,-0.9375 -0.53386,-0.22133 -1.13282,-0.33201 -1.79687,-0.33203 -0.88543,2e-5 -1.69272,0.21486 -2.42188,0.64453 -0.71615,0.42971 -1.32813,1.07424 -1.83593,1.93359 -0.50782,0.84638 -0.89845,1.90106 -1.17188,3.16407 -0.27344,1.25001 -0.41016,2.70183 -0.41015,4.35546"
         id="path3044"
         style="fill:#ffffff" />
      <path
         d="m 383.91461,286.64789 -16.03515,0 0,-3.16406 6.5625,0 0,-18.63282 -6.11329,3.32032 -1.25,-2.89063 8.125,-4.27734 3.00782,0 0,22.48047 5.70312,0 0,3.16406"
         id="path3046"
         style="fill:#ffffff" />
      <path
         d="m 406.74664,273.89398 c -2e-5,1.95314 -0.19533,3.73699 -0.58593,5.35156 -0.39065,1.60157 -0.9831,2.98178 -1.77735,4.14063 -0.79429,1.14583 -1.78387,2.03776 -2.96875,2.67578 -1.17189,0.625 -2.55209,0.9375 -4.14062,0.9375 -1.3672,0 -2.61069,-0.25391 -3.73047,-0.76172 -1.1198,-0.52083 -2.07683,-1.3151 -2.8711,-2.38281 -0.79427,-1.06771 -1.40625,-2.42838 -1.83593,-4.08203 -0.42969,-1.65364 -0.64454,-3.61327 -0.64453,-5.87891 -10e-6,-1.95311 0.19531,-3.73696 0.58593,-5.35156 0.40365,-1.61456 0.99609,-2.99477 1.77735,-4.14063 0.79426,-1.15883 1.78385,-2.05075 2.96875,-2.67578 1.18488,-0.63799 2.56509,-0.957 4.14062,-0.95703 1.36718,3e-5 2.61067,0.26044 3.73047,0.78125 1.11978,0.50784 2.07681,1.30211 2.87109,2.38281 0.79426,1.06773 1.40624,2.42841 1.83594,4.08204 0.42967,1.65366 0.64451,3.61329 0.64453,5.8789 m -3.4375,0.11719 c -1e-5,-0.4427 -0.0195,-0.87889 -0.0586,-1.30859 -0.0261,-0.4427 -0.0586,-0.87239 -0.0977,-1.28907 l -10.80078,8.02735 c 0.19531,0.67709 0.4427,1.30209 0.74219,1.875 0.29947,0.57292 0.65754,1.06771 1.07422,1.48437 0.42968,0.40365 0.91145,0.72266 1.44531,0.95703 0.54687,0.22136 1.16535,0.33204 1.85547,0.33203 0.8854,10e-6 1.68618,-0.21484 2.40234,-0.64453 0.72916,-0.42968 1.34764,-1.0677 1.85547,-1.91406 0.5078,-0.84635 0.89842,-1.89452 1.17188,-3.14453 0.27342,-1.26301 0.41014,-2.72134 0.41015,-4.375 m -11.67968,-0.23438 c -1e-5,0.40366 -1e-5,0.80731 0,1.21094 0.013,0.40366 0.0391,0.79428 0.0781,1.17188 l 10.80078,-7.98828 c -0.19533,-0.66405 -0.44272,-1.26952 -0.74219,-1.81641 -0.29949,-0.54685 -0.65756,-1.0156 -1.07421,-1.40625 -0.41668,-0.40362 -0.89194,-0.71612 -1.42579,-0.9375 -0.53386,-0.22133 -1.13282,-0.33201 -1.79687,-0.33203 -0.88543,2e-5 -1.69272,0.21486 -2.42188,0.64453 -0.71615,0.42971 -1.32813,1.07424 -1.83593,1.93359 -0.50782,0.84638 -0.89845,1.90106 -1.17188,3.16407 -0.27344,1.25001 -0.41016,2.70183 -0.41015,4.35546"
         id="path3048"
         style="fill:#ffffff" />
      <path
         d="m 428.77789,273.89398 c -2e-5,1.95314 -0.19533,3.73699 -0.58593,5.35156 -0.39065,1.60157 -0.9831,2.98178 -1.77735,4.14063 -0.79429,1.14583 -1.78387,2.03776 -2.96875,2.67578 -1.17189,0.625 -2.55209,0.9375 -4.14062,0.9375 -1.3672,0 -2.61069,-0.25391 -3.73047,-0.76172 -1.1198,-0.52083 -2.07683,-1.3151 -2.8711,-2.38281 -0.79427,-1.06771 -1.40625,-2.42838 -1.83593,-4.08203 -0.42969,-1.65364 -0.64454,-3.61327 -0.64453,-5.87891 -10e-6,-1.95311 0.19531,-3.73696 0.58593,-5.35156 0.40365,-1.61456 0.99609,-2.99477 1.77735,-4.14063 0.79426,-1.15883 1.78385,-2.05075 2.96875,-2.67578 1.18488,-0.63799 2.56509,-0.957 4.14062,-0.95703 1.36718,3e-5 2.61067,0.26044 3.73047,0.78125 1.11978,0.50784 2.07681,1.30211 2.87109,2.38281 0.79426,1.06773 1.40624,2.42841 1.83594,4.08204 0.42967,1.65366 0.64451,3.61329 0.64453,5.8789 m -3.4375,0.11719 c -1e-5,-0.4427 -0.0195,-0.87889 -0.0586,-1.30859 -0.0261,-0.4427 -0.0586,-0.87239 -0.0977,-1.28907 l -10.80078,8.02735 c 0.19531,0.67709 0.4427,1.30209 0.74219,1.875 0.29947,0.57292 0.65754,1.06771 1.07422,1.48437 0.42968,0.40365 0.91145,0.72266 1.44531,0.95703 0.54687,0.22136 1.16535,0.33204 1.85547,0.33203 0.8854,10e-6 1.68618,-0.21484 2.40234,-0.64453 0.72916,-0.42968 1.34764,-1.0677 1.85547,-1.91406 0.5078,-0.84635 0.89842,-1.89452 1.17188,-3.14453 0.27342,-1.26301 0.41014,-2.72134 0.41015,-4.375 m -11.67968,-0.23438 c -1e-5,0.40366 -1e-5,0.80731 0,1.21094 0.013,0.40366 0.0391,0.79428 0.0781,1.17188 l 10.80078,-7.98828 c -0.19533,-0.66405 -0.44272,-1.26952 -0.74219,-1.81641 -0.29949,-0.54685 -0.65756,-1.0156 -1.07421,-1.40625 -0.41668,-0.40362 -0.89194,-0.71612 -1.42579,-0.9375 -0.53386,-0.22133 -1.13282,-0.33201 -1.79687,-0.33203 -0.88543,2e-5 -1.69272,0.21486 -2.42188,0.64453 -0.71615,0.42971 -1.32813,1.07424 -1.83593,1.93359 -0.50782,0.84638 -0.89845,1.90106 -1.17188,3.16407 -0.27344,1.25001 -0.41016,2.70183 -0.41015,4.35546"
         id="path3050"
         style="fill:#ffffff" />
      <path
         d="m 274.55914,323.89398 c -2e-5,1.95314 -0.19533,3.73699 -0.58593,5.35156 -0.39065,1.60157 -0.9831,2.98178 -1.77735,4.14063 -0.79429,1.14583 -1.78387,2.03776 -2.96875,2.67578 -1.17189,0.625 -2.55209,0.9375 -4.14062,0.9375 -1.3672,0 -2.61069,-0.25391 -3.73047,-0.76172 -1.1198,-0.52083 -2.07683,-1.3151 -2.8711,-2.38281 -0.79427,-1.06771 -1.40625,-2.42838 -1.83593,-4.08203 -0.42969,-1.65364 -0.64454,-3.61327 -0.64453,-5.87891 -10e-6,-1.95311 0.19531,-3.73696 0.58593,-5.35156 0.40365,-1.61456 0.99609,-2.99477 1.77735,-4.14063 0.79426,-1.15883 1.78385,-2.05075 2.96875,-2.67578 1.18488,-0.63799 2.56509,-0.957 4.14062,-0.95703 1.36718,3e-5 2.61067,0.26044 3.73047,0.78125 1.11978,0.50784 2.07681,1.30211 2.87109,2.38281 0.79426,1.06773 1.40624,2.42841 1.83594,4.08204 0.42967,1.65366 0.64451,3.61329 0.64453,5.8789 m -3.4375,0.11719 c -1e-5,-0.4427 -0.0195,-0.87889 -0.0586,-1.30859 -0.0261,-0.4427 -0.0586,-0.87239 -0.0977,-1.28907 l -10.80078,8.02735 c 0.19531,0.67709 0.4427,1.30209 0.74219,1.875 0.29947,0.57292 0.65754,1.06771 1.07422,1.48437 0.42968,0.40365 0.91145,0.72266 1.44531,0.95703 0.54687,0.22136 1.16535,0.33204 1.85547,0.33203 0.8854,10e-6 1.68618,-0.21484 2.40234,-0.64453 0.72916,-0.42968 1.34764,-1.0677 1.85547,-1.91406 0.5078,-0.84635 0.89842,-1.89452 1.17188,-3.14453 0.27342,-1.26301 0.41014,-2.72134 0.41015,-4.375 m -11.67968,-0.23438 c -1e-5,0.40366 -1e-5,0.80731 0,1.21094 0.013,0.40366 0.0391,0.79428 0.0781,1.17188 l 10.80078,-7.98828 c -0.19533,-0.66405 -0.44272,-1.26952 -0.74219,-1.81641 -0.29949,-0.54685 -0.65756,-1.0156 -1.07421,-1.40625 -0.41668,-0.40362 -0.89194,-0.71612 -1.42579,-0.9375 -0.53386,-0.22133 -1.13282,-0.33201 -1.79687,-0.33203 -0.88543,2e-5 -1.69272,0.21486 -2.42188,0.64453 -0.71615,0.42971 -1.32813,1.07424 -1.83593,1.93359 -0.50782,0.84638 -0.89845,1.90106 -1.17188,3.16407 -0.27344,1.25001 -0.41016,2.70183 -0.41015,4.35546"
         id="path3052"
         style="fill:#ffffff" />
      <path
         d="m 295.78961,336.64789 -16.03515,0 0,-3.16406 6.5625,0 0,-18.63282 -6.11329,3.32032 -1.25,-2.89063 8.125,-4.27734 3.00782,0 0,22.48047 5.70312,0 0,3.16406"
         id="path3054"
         style="fill:#ffffff" />
      <path
         d="m 317.82086,336.64789 -16.03515,0 0,-3.16406 6.5625,0 0,-18.63282 -6.11329,3.32032 -1.25,-2.89063 8.125,-4.27734 3.00782,0 0,22.48047 5.70312,0 0,3.16406"
         id="path3056"
         style="fill:#ffffff" />
      <path
         d="m 340.65289,323.89398 c -2e-5,1.95314 -0.19533,3.73699 -0.58593,5.35156 -0.39065,1.60157 -0.9831,2.98178 -1.77735,4.14063 -0.79429,1.14583 -1.78387,2.03776 -2.96875,2.67578 -1.17189,0.625 -2.55209,0.9375 -4.14062,0.9375 -1.3672,0 -2.61069,-0.25391 -3.73047,-0.76172 -1.1198,-0.52083 -2.07683,-1.3151 -2.8711,-2.38281 -0.79427,-1.06771 -1.40625,-2.42838 -1.83593,-4.08203 -0.42969,-1.65364 -0.64454,-3.61327 -0.64453,-5.87891 -10e-6,-1.95311 0.19531,-3.73696 0.58593,-5.35156 0.40365,-1.61456 0.99609,-2.99477 1.77735,-4.14063 0.79426,-1.15883 1.78385,-2.05075 2.96875,-2.67578 1.18488,-0.63799 2.56509,-0.957 4.14062,-0.95703 1.36718,3e-5 2.61067,0.26044 3.73047,0.78125 1.11978,0.50784 2.07681,1.30211 2.87109,2.38281 0.79426,1.06773 1.40624,2.42841 1.83594,4.08204 0.42967,1.65366 0.64451,3.61329 0.64453,5.8789 m -3.4375,0.11719 c -1e-5,-0.4427 -0.0195,-0.87889 -0.0586,-1.30859 -0.0261,-0.4427 -0.0586,-0.87239 -0.0977,-1.28907 l -10.80078,8.02735 c 0.19531,0.67709 0.4427,1.30209 0.74219,1.875 0.29947,0.57292 0.65754,1.06771 1.07422,1.48437 0.42968,0.40365 0.91145,0.72266 1.44531,0.95703 0.54687,0.22136 1.16535,0.33204 1.85547,0.33203 0.8854,10e-6 1.68618,-0.21484 2.40234,-0.64453 0.72916,-0.42968 1.34764,-1.0677 1.85547,-1.91406 0.5078,-0.84635 0.89842,-1.89452 1.17188,-3.14453 0.27342,-1.26301 0.41014,-2.72134 0.41015,-4.375 m -11.67968,-0.23438 c -1e-5,0.40366 -1e-5,0.80731 0,1.21094 0.013,0.40366 0.0391,0.79428 0.0781,1.17188 l 10.80078,-7.98828 c -0.19533,-0.66405 -0.44272,-1.26952 -0.74219,-1.81641 -0.29949,-0.54685 -0.65756,-1.0156 -1.07421,-1.40625 -0.41668,-0.40362 -0.89194,-0.71612 -1.42579,-0.9375 -0.53386,-0.22133 -1.13282,-0.33201 -1.79687,-0.33203 -0.88543,2e-5 -1.69272,0.21486 -2.42188,0.64453 -0.71615,0.42971 -1.32813,1.07424 -1.83593,1.93359 -0.50782,0.84638 -0.89845,1.90106 -1.17188,3.16407 -0.27344,1.25001 -0.41016,2.70183 -0.41015,4.35546"
         id="path3058"
         style="fill:#ffffff" />
      <path
         d="m 362.68414,323.89398 c -2e-5,1.95314 -0.19533,3.73699 -0.58593,5.35156 -0.39065,1.60157 -0.9831,2.98178 -1.77735,4.14063 -0.79429,1.14583 -1.78387,2.03776 -2.96875,2.67578 -1.17189,0.625 -2.55209,0.9375 -4.14062,0.9375 -1.3672,0 -2.61069,-0.25391 -3.73047,-0.76172 -1.1198,-0.52083 -2.07683,-1.3151 -2.8711,-2.38281 -0.79427,-1.06771 -1.40625,-2.42838 -1.83593,-4.08203 -0.42969,-1.65364 -0.64454,-3.61327 -0.64453,-5.87891 -10e-6,-1.95311 0.19531,-3.73696 0.58593,-5.35156 0.40365,-1.61456 0.99609,-2.99477 1.77735,-4.14063 0.79426,-1.15883 1.78385,-2.05075 2.96875,-2.67578 1.18488,-0.63799 2.56509,-0.957 4.14062,-0.95703 1.36718,3e-5 2.61067,0.26044 3.73047,0.78125 1.11978,0.50784 2.07681,1.30211 2.87109,2.38281 0.79426,1.06773 1.40624,2.42841 1.83594,4.08204 0.42967,1.65366 0.64451,3.61329 0.64453,5.8789 m -3.4375,0.11719 c -1e-5,-0.4427 -0.0195,-0.87889 -0.0586,-1.30859 -0.0261,-0.4427 -0.0586,-0.87239 -0.0977,-1.28907 l -10.80078,8.02735 c 0.19531,0.67709 0.4427,1.30209 0.74219,1.875 0.29947,0.57292 0.65754,1.06771 1.07422,1.48437 0.42968,0.40365 0.91145,0.72266 1.44531,0.95703 0.54687,0.22136 1.16535,0.33204 1.85547,0.33203 0.8854,10e-6 1.68618,-0.21484 2.40234,-0.64453 0.72916,-0.42968 1.34764,-1.0677 1.85547,-1.91406 0.5078,-0.84635 0.89842,-1.89452 1.17188,-3.14453 0.27342,-1.26301 0.41014,-2.72134 0.41015,-4.375 m -11.67968,-0.23438 c -1e-5,0.40366 -1e-5,0.80731 0,1.21094 0.013,0.40366 0.0391,0.79428 0.0781,1.17188 l 10.80078,-7.98828 c -0.19533,-0.66405 -0.44272,-1.26952 -0.74219,-1.81641 -0.29949,-0.54685 -0.65756,-1.0156 -1.07421,-1.40625 -0.41668,-0.40362 -0.89194,-0.71612 -1.42579,-0.9375 -0.53386,-0.22133 -1.13282,-0.33201 -1.79687,-0.33203 -0.88543,2e-5 -1.69272,0.21486 -2.42188,0.64453 -0.71615,0.42971 -1.32813,1.07424 -1.83593,1.93359 -0.50782,0.84638 -0.89845,1.90106 -1.17188,3.16407 -0.27344,1.25001 -0.41016,2.70183 -0.41015,4.35546"
         id="path3060"
         style="fill:#ffffff" />
      <path
         d="m 384.71539,323.89398 c -2e-5,1.95314 -0.19533,3.73699 -0.58593,5.35156 -0.39065,1.60157 -0.9831,2.98178 -1.77735,4.14063 -0.79429,1.14583 -1.78387,2.03776 -2.96875,2.67578 -1.17189,0.625 -2.55209,0.9375 -4.14062,0.9375 -1.3672,0 -2.61069,-0.25391 -3.73047,-0.76172 -1.1198,-0.52083 -2.07683,-1.3151 -2.8711,-2.38281 -0.79427,-1.06771 -1.40625,-2.42838 -1.83593,-4.08203 -0.42969,-1.65364 -0.64454,-3.61327 -0.64453,-5.87891 -10e-6,-1.95311 0.19531,-3.73696 0.58593,-5.35156 0.40365,-1.61456 0.99609,-2.99477 1.77735,-4.14063 0.79426,-1.15883 1.78385,-2.05075 2.96875,-2.67578 1.18488,-0.63799 2.56509,-0.957 4.14062,-0.95703 1.36718,3e-5 2.61067,0.26044 3.73047,0.78125 1.11978,0.50784 2.07681,1.30211 2.87109,2.38281 0.79426,1.06773 1.40624,2.42841 1.83594,4.08204 0.42967,1.65366 0.64451,3.61329 0.64453,5.8789 m -3.4375,0.11719 c -1e-5,-0.4427 -0.0195,-0.87889 -0.0586,-1.30859 -0.0261,-0.4427 -0.0586,-0.87239 -0.0977,-1.28907 l -10.80078,8.02735 c 0.19531,0.67709 0.4427,1.30209 0.74219,1.875 0.29947,0.57292 0.65754,1.06771 1.07422,1.48437 0.42968,0.40365 0.91145,0.72266 1.44531,0.95703 0.54687,0.22136 1.16535,0.33204 1.85547,0.33203 0.8854,10e-6 1.68618,-0.21484 2.40234,-0.64453 0.72916,-0.42968 1.34764,-1.0677 1.85547,-1.91406 0.5078,-0.84635 0.89842,-1.89452 1.17188,-3.14453 0.27342,-1.26301 0.41014,-2.72134 0.41015,-4.375 m -11.67968,-0.23438 c -1e-5,0.40366 -1e-5,0.80731 0,1.21094 0.013,0.40366 0.0391,0.79428 0.0781,1.17188 l 10.80078,-7.98828 c -0.19533,-0.66405 -0.44272,-1.26952 -0.74219,-1.81641 -0.29949,-0.54685 -0.65756,-1.0156 -1.07421,-1.40625 -0.41668,-0.40362 -0.89194,-0.71612 -1.42579,-0.9375 -0.53386,-0.22133 -1.13282,-0.33201 -1.79687,-0.33203 -0.88543,2e-5 -1.69272,0.21486 -2.42188,0.64453 -0.71615,0.42971 -1.32813,1.07424 -1.83593,1.93359 -0.50782,0.84638 -0.89845,1.90106 -1.17188,3.16407 -0.27344,1.25001 -0.41016,2.70183 -0.41015,4.35546"
         id="path3062"
         style="fill:#ffffff" />
      <path
         d="m 406.74664,323.89398 c -2e-5,1.95314 -0.19533,3.73699 -0.58593,5.35156 -0.39065,1.60157 -0.9831,2.98178 -1.77735,4.14063 -0.79429,1.14583 -1.78387,2.03776 -2.96875,2.67578 -1.17189,0.625 -2.55209,0.9375 -4.14062,0.9375 -1.3672,0 -2.61069,-0.25391 -3.73047,-0.76172 -1.1198,-0.52083 -2.07683,-1.3151 -2.8711,-2.38281 -0.79427,-1.06771 -1.40625,-2.42838 -1.83593,-4.08203 -0.42969,-1.65364 -0.64454,-3.61327 -0.64453,-5.87891 -10e-6,-1.95311 0.19531,-3.73696 0.58593,-5.35156 0.40365,-1.61456 0.99609,-2.99477 1.77735,-4.14063 0.79426,-1.15883 1.78385,-2.05075 2.96875,-2.67578 1.18488,-0.63799 2.56509,-0.957 4.14062,-0.95703 1.36718,3e-5 2.61067,0.26044 3.73047,0.78125 1.11978,0.50784 2.07681,1.30211 2.87109,2.38281 0.79426,1.06773 1.40624,2.42841 1.83594,4.08204 0.42967,1.65366 0.64451,3.61329 0.64453,5.8789 m -3.4375,0.11719 c -1e-5,-0.4427 -0.0195,-0.87889 -0.0586,-1.30859 -0.0261,-0.4427 -0.0586,-0.87239 -0.0977,-1.28907 l -10.80078,8.02735 c 0.19531,0.67709 0.4427,1.30209 0.74219,1.875 0.29947,0.57292 0.65754,1.06771 1.07422,1.48437 0.42968,0.40365 0.91145,0.72266 1.44531,0.95703 0.54687,0.22136 1.16535,0.33204 1.85547,0.33203 0.8854,10e-6 1.68618,-0.21484 2.40234,-0.64453 0.72916,-0.42968 1.34764,-1.0677 1.85547,-1.91406 0.5078,-0.84635 0.89842,-1.89452 1.17188,-3.14453 0.27342,-1.26301 0.41014,-2.72134 0.41015,-4.375 m -11.67968,-0.23438 c -1e-5,0.40366 -1e-5,0.80731 0,1.21094 0.013,0.40366 0.0391,0.79428 0.0781,1.17188 l 10.80078,-7.98828 c -0.19533,-0.66405 -0.44272,-1.26952 -0.74219,-1.81641 -0.29949,-0.54685 -0.65756,-1.0156 -1.07421,-1.40625 -0.41668,-0.40362 -0.89194,-0.71612 -1.42579,-0.9375 -0.53386,-0.22133 -1.13282,-0.33201 -1.79687,-0.33203 -0.88543,2e-5 -1.69272,0.21486 -2.42188,0.64453 -0.71615,0.42971 -1.32813,1.07424 -1.83593,1.93359 -0.50782,0.84638 -0.89845,1.90106 -1.17188,3.16407 -0.27344,1.25001 -0.41016,2.70183 -0.41015,4.35546"
         id="path3064"
         style="fill:#ffffff" />
      <path
         d="m 427.97711,336.64789 -16.03515,0 0,-3.16406 6.5625,0 0,-18.63282 -6.11329,3.32032 -1.25,-2.89063 8.125,-4.27734 3.00782,0 0,22.48047 5.70312,0 0,3.16406"
         id="path3066"
         style="fill:#ffffff" />
    </g>
  </g>
</svg>
